<?xml version="1.0" encoding="UTF-8" standalone="no"?>
<svg
   version="1.1"
   width="170pt"
   height="190pt"
   id="svg83"
   viewBox="0 0 170 190.00001"
   sodipodi:docname="wisski_glass.svg"
   inkscape:version="1.3.2 (091e20e, 2023-11-25)"
   xmlns:inkscape="http://www.inkscape.org/namespaces/inkscape"
   xmlns:sodipodi="http://sodipodi.sourceforge.net/DTD/sodipodi-0.dtd"
   xmlns="http://www.w3.org/2000/svg"
   xmlns:svg="http://www.w3.org/2000/svg">
  <sodipodi:namedview
     id="namedview85"
     pagecolor="#ffffff"
     bordercolor="#000000"
     borderopacity="0.25"
     inkscape:showpageshadow="2"
     inkscape:pageopacity="0.0"
     inkscape:pagecheckerboard="true"
     inkscape:deskcolor="#d1d1d1"
     inkscape:document-units="pt"
     showgrid="false"
     inkscape:zoom="4.4277869"
     inkscape:cx="123.19924"
     inkscape:cy="197.05104"
     inkscape:window-width="1688"
     inkscape:window-height="932"
     inkscape:window-x="0"
     inkscape:window-y="25"
     inkscape:window-maximized="0"
     inkscape:current-layer="svg83" />
  <defs
     id="defs7">
    <radialGradient
       id="grad1"
       cx="38.890202"
       cy="2824.9346"
       r="21.212843"
       gradientTransform="matrix(7.0711833,0,0,0.14141905,-189.99975,-387.99975)"
       fx="38.890202"
       fy="2824.9346"
       gradientUnits="userSpaceOnUse">
      <stop
         offset="0%"
         stop-color="#ffffff"
         stop-opacity="1.0000"
         id="stop2" />
      <stop
         offset="100%"
         stop-color="#b1b3b4"
         stop-opacity="1.0000"
         id="stop4" />
    </radialGradient>
  </defs>
  <path
     d="m 10.00005,9.99985 v 2.9999 h 149.9999 v -2.9999 z"
     style="fill:url(#grad1)"
     id="path9" />
  <defs
     id="defs16">
    <radialGradient
       id="grad2"
       cx="284.77551"
       cy="445.71454"
       r="159.68723"
       gradientTransform="matrix(0.93933557,0,0,1.0645823,-189.99975,-387.99975)"
       fx="284.77551"
       fy="445.71454"
       gradientUnits="userSpaceOnUse">
      <stop
         offset="0%"
         stop-color="#e4f3f7"
         stop-opacity="1.0000"
         id="stop11" />
      <stop
         offset="100%"
         stop-color="#868789"
         stop-opacity="1.0000"
         id="stop13" />
    </radialGradient>
  </defs>
  <path
     d="m 159.99995,9.99995 v 140.0003 c 0,16.4994 -10.9693,29.9999 -24.3752,29.9999 H 34.37525 c -13.4059,0 -24.3752,-13.5 -24.3752,-29.9999 V 9.99995 h 9.9998 v 100.0003 h 3e-4 v 21.0002 c 0,13.1996 9.506,24.0001 21.124905,24.0001 h 87.750395 c 11.619,0 21.125,-10.8005 21.125,-24.0001 v -35.9997 h -3e-4 V 9.99995 Z"
     style="fill:url(#grad2)"
     id="path18" />
  <defs
     id="defs25">
    <radialGradient
       id="grad3"
       cx="202.27991"
       cy="770.45557"
       r="74.187271"
       gradientTransform="matrix(1.4719721,0,0,0.67936069,-189.99975,-387.99975)"
       fx="202.27991"
       fy="770.45557"
       gradientUnits="userSpaceOnUse">
      <stop
         offset="0%"
         stop-color="#ffb31c"
         stop-opacity="1.0000"
         id="stop20" />
      <stop
         offset="100%"
         stop-color="#bf6e1c"
         stop-opacity="1.0000"
         id="stop22" />
    </radialGradient>
  </defs>
  <path
     d="m 150.00125,94.91755 v 35.9997 c 0,13.1999 -9.5064,24.0002 -21.1255,24.0002 H 41.124755 c -11.619005,0 -21.125405,-10.8003 -21.125405,-24.0002 v -35.9997 z"
     style="fill:url(#grad3)"
     id="path27" />
  <path
     d="m 150.39665,95.00015 v 35.9992 c 0,13.1998 -9.5063,23.9999 -21.1254,23.9999 H 41.520655 c -11.619005,0 -21.125305,-10.8001 -21.125305,-23.9999 v -35.9992 z"
     style="fill:#fcb11c;fill-opacity:0.4;fill-rule:evenodd"
     id="path44" />
  <defs
     id="defs51">
    <linearGradient
       id="grad4"
       gradientTransform="matrix(6.5831426,0,0,0.15190313,-189.99975,-387.99975)"
       x1="31.899551"
       y1="3184.8323"
       x2="51.647003"
       y2="3184.8323"
       gradientUnits="userSpaceOnUse">
      <stop
         offset="0%"
         stop-color="#a06414"
         stop-opacity="1.0000"
         id="stop46" />
      <stop
         offset="100%"
         stop-color="#e8a51e"
         stop-opacity="1.0000"
         id="stop48" />
    </linearGradient>
  </defs>
  <path
     d="m 19.99935,94.99995 v 1 h 130.0008 v -1 z"
     style="fill:#ffae52;fill-rule:evenodd"
     id="path55" />
  <path
     d="m 84.999955,163.00025 a 50,6.0001 0 0 1 50.000095,6.0001 50,6.0001 0 1 1 -50.000095,-6.0001 z"
     style="fill:#ffffff;fill-rule:evenodd"
     id="path72" />
  <defs
     id="defs79">
    <radialGradient
       id="grad5"
       cx="70.788597"
       cy="2292.1216"
       r="19.595547"
       gradientTransform="matrix(4.0825756,0,0,0.24494341,-189.99975,-387.99975)"
       fx="70.788597"
       fy="2292.1216"
       gradientUnits="userSpaceOnUse">
      <stop
         offset="0%"
         stop-color="#f0a71a"
         stop-opacity="1.0000"
         id="stop74" />
      <stop
         offset="100%"
         stop-color="#d97e23"
         stop-opacity="1.0000"
         id="stop76" />
    </radialGradient>
  </defs>
  <path
     d="m 84.999955,170.20045 c 16.354605,0 30.877195,0.9426 40.000195,2.3999 -9.123,1.4573 -23.64559,2.3999 -40.000195,2.3999 -16.3545,0 -30.8771,-0.9426 -40.0001,-2.3999 9.123,-1.4573 23.6456,-2.3999 40.0001,-2.3999 z"
     style="fill:url(#grad5)"
     id="path81" />
</svg>
